:SAMPLES-PER-SECOND 30
:FULLY-SPECIFIED
:DEGREES
427
root  -1.1657 5.93965 15.5054 -46.3415 -2.92067 2.65516
RightUpLeg  -89.3194 -14.1292 5.97188
RightLeg  88.9324 16.1599 -8.47347
RightFoot  30.4474 3.60234 -9.28983
RightToes  5.82077e-011 -3.18055e-015 -2.98177e-016
Spine  29.7677 -0.36454 4.73104
Spine1  19.2566 -2.59502 2.78064
HEad  -9.57573 0.565393 0.560859
LeftShoulder1  -3.88251e-019 9.70628e-020 -3.87848e-018
LeftArm  -36.63 76.137 -79.9657
LeftForeArm  10.6727 -0.827724 -3.86551
LeftHand  -12.2859 -10.8985 76.5449
RightShoulder  6.35883 10.0996 30.3764
RightArm  27.1769 -64.2199 -18.5974
RightForeArm  1.32139 11.0418 -5.77248
RightHand  -10.0716 9.19583 -69.7745
LeftUpLeg  -87.3269 7.44807 -1.02553
LeftLeg  88.2621 -13.8435 12.1172
LeftFoot  33.8129 -1.17757 2.94143
LeftToes  5.91571e-011 -3.44359e-011 -3.93244e-011
428
root  -1.17493 5.93457 15.5274 -46.4504 -2.93339 2.75147
RightUpLeg  -89.5505 -14.6896 6.45066
RightLeg  89.222 16.1767 -8.08347
RightFoot  30.0118 3.64482 -9.49439
RightToes  5.82077e-011 -3.18055e-015 -2.98177e-016
Spine  29.7148 -0.350197 5.12422
Spine1  19.5699 -2.47069 2.86467
HEad  -9.22716 0.639292 1.65125
LeftShoulder1  -3.88251e-019 9.70628e-020 -3.87848e-018
LeftArm  -35.4753 75.9218 -79.1738
LeftForeArm  10.8684 -0.901443 -4.23972
LeftHand  -12.1157 -10.8298 76.0059
RightShoulder  6.4618 10.174 30.7718
RightArm  29.4772 -64.3499 -20.9158
RightForeArm  0.4354 12.6518 -6.20516
RightHand  -10.1431 9.27204 -69.8779
LeftUpLeg  -87.1958 7.18165 -0.73599
LeftLeg  88.3066 -13.8622 12.3097
LeftFoot  33.8401 -1.03259 2.60589
LeftToes  5.91571e-011 -3.44359e-011 -3.93244e-011
429
root  -1.19834 5.94092 15.5351 -46.4219 -3.09272 3.02951
RightUpLeg  -89.9845 -15.1789 7.2327
RightLeg  89.4571 16.1824 -7.66839
RightFoot  29.57 3.7503 -9.8648
RightToes  5.82077e-011 -3.18055e-015 -2.98177e-016
Spine  29.7556 -0.151482 5.48969
Spine1  19.5866 -2.23728 3.19151
HEad  -8.59734 0.506953 2.80959
LeftShoulder1  -3.88251e-019 9.70628e-020 -3.87848e-018
LeftArm  -34.5111 75.6746 -78.5622
LeftForeArm  11.4345 -0.979172 -4.61373
LeftHand  -12.0362 -10.9136 75.3435
RightShoulder  6.50551 10.1895 30.9717
RightArm  32.7914 -64.5171 -23.7354
RightForeArm  -1.25445 14.3785 -6.6204
RightHand  -10.1468 9.14254 -70.3738
LeftUpLeg  -87.1256 7.09511 -0.386191
LeftLeg  88.267 -13.8706 12.625
LeftFoot  33.9101 -0.856215 2.19657
LeftToes  5.91571e-011 -3.44359e-011 -3.93244e-011
430
root  -1.23423 5.95687 15.5377 -46.12 -3.40592 3.49612
RightUpLeg  -90.7521 -15.6178 8.35689
RightLeg  89.6812 16.1796 -7.17317
RightFoot  28.9811 3.91953 -10.4454
RightToes  5.82077e-011 -3.18055e-015 -2.98177e-016
Spine  29.6487 0.13329 5.89779
Spine1  19.4769 -1.93532 3.49508
HEad  -7.96132 0.470335 4.2438
LeftShoulder1  -3.88251e-019 9.70628e-020 -3.87848e-018
LeftArm  -33.3862 75.5202 -77.8443
LeftForeArm  12.1465 -1.05394 -5.01859
LeftHand  -12.1106 -11.0242 75.3011
RightShoulder  6.49266 10.1578 30.9697
RightArm  37.1513 -64.7819 -26.7761
RightForeArm  -3.80589 16.196 -7.18189
RightHand  -10.2077 9.10481 -70.8394
LeftUpLeg  -87.2715 7.15899 -0.00233517
LeftLeg  88.2286 -13.8724 12.8124
LeftFoot  34.0292 -0.68408 1.79654
LeftToes  5.91571e-011 -3.44359e-011 -3.93244e-011
431
root  -1.2752 5.96298 15.553 -45.8411 -3.79431 4.00704
RightUpLeg  -91.604 -16.1396 9.66267
RightLeg  90.0308 16.176 -6.49059
RightFoot  28.2793 4.19215 -11.3443
RightToes  5.82077e-011 -3.18055e-015 -2.98177e-016
Spine  29.5023 0.21798 6.4768
Spine1  19.5063 -1.68356 3.41189
HEad  -7.60212 0.788191 5.93433
LeftShoulder1  -3.88251e-019 9.70628e-020 -3.87848e-018
LeftArm  -31.5603 75.6516 -76.6904
LeftForeArm  12.5527 -1.23956 -5.58623
LeftHand  -12.006 -10.8928 75.276
RightShoulder  6.47985 10.1223 30.976
RightArm  41.9056 -65.2107 -29.7658
RightForeArm  -6.52573 18.1529 -8.34817
RightHand  -10.3259 9.27408 -70.8392
LeftUpLeg  -87.4137 7.20838 0.491191
LeftLeg  88.3061 -13.8858 12.7625
LeftFoot  34.161 -0.503939 1.38011
LeftToes  5.91571e-011 -3.44359e-011 -3.93244e-011
432
root  -1.32629 5.95746 15.5718 -45.751 -4.29805 4.47108
RightUpLeg  -92.3134 -16.7066 11.1488
RightLeg  90.1456 16.1889 -6.50268
RightFoot  27.4756 4.36519 -12.0399
RightToes  5.82077e-011 -3.18055e-015 -2.98177e-016
Spine  29.5755 0.00712499 7.16525
Spine1  19.6388 -1.5573 2.99612
HEad  -7.46804 1.52352 7.58422
LeftShoulder1  -3.88251e-019 9.70628e-020 -3.87848e-018
LeftArm  -29.4025 76.068 -75.4174
LeftForeArm  12.7496 -2.00798 -6.15593
LeftHand  -11.4 -10.4928 73.8006
RightShoulder  6.42875 10.0748 30.8029
RightArm  46.4074 -65.8526 -32.4603
RightForeArm  -8.82217 20.1553 -9.96667
RightHand  -10.3616 9.33055 -70.8196
LeftUpLeg  -87.3874 7.29261 1.2015
LeftLeg  88.4579 -13.9093 12.6173
LeftFoot  34.2728 -0.306858 0.927945
LeftToes  5.91571e-011 -3.44359e-011 -3.93244e-011
433
root  -1.4042 5.95679 15.5728 -45.5448 -4.94264 5.00873
RightUpLeg  -93.0843 -17.1033 13.0463
RightLeg  89.3377 16.2186 -8.60145
RightFoot  26.279 4.2133 -11.9987
RightToes  5.82077e-011 -3.18055e-015 -2.98177e-016
Spine  29.7611 -0.26904 7.63295
Spine1  19.6902 -1.54885 2.62691
HEad  -7.4618 2.603 9.05753
LeftShoulder1  -3.88251e-019 9.70628e-020 -3.87848e-018
LeftArm  -27.7513 76.5081 -74.4684
LeftForeArm  13.4791 -3.25996 -6.39825
LeftHand  -10.6062 -10.1702 71.0098
RightShoulder  6.29806 10.0042 30.2489
RightArm  50.891 -66.5027 -34.9203
RightForeArm  -10.8828 22.2348 -11.4738
RightHand  -10.399 9.25985 -71.2745
LeftUpLeg  -87.4215 7.60481 1.99826
LeftLeg  88.5456 -13.9205 12.4971
LeftFoot  34.3508 -0.125591 0.514274
LeftToes  5.91571e-011 -3.44359e-011 -3.93244e-011
434
root  -1.51703 5.96576 15.5666 -44.9935 -5.53514 5.78289
RightUpLeg  -94.1883 -17.2162 15.376
RightLeg  87.6653 16.1399 -12.3254
RightFoot  24.4682 3.91971 -11.7487
RightToes  5.82077e-011 -3.18055e-015 -2.98177e-016
Spine  29.744 -0.371609 7.50661
Spine1  19.7286 -1.68085 2.61203
HEad  -7.64142 3.94518 10.3701
LeftShoulder1  -3.88251e-019 9.70628e-020 -3.87848e-018
LeftArm  -26.7125 76.7964 -73.7309
LeftForeArm  14.9232 -3.86552 -6.39537
LeftHand  -10.17 -10.2137 68.5932
RightShoulder  6.16167 9.94283 29.6391
RightArm  55.1881 -66.7693 -37.3269
RightForeArm  -12.5198 24.6734 -12.7261
RightHand  -10.6865 9.56794 -71.6399
LeftUpLeg  -87.7319 8.11018 2.56604
LeftLeg  88.5679 -13.9155 12.3266
LeftFoot  34.3505 0.0228707 0.176398
LeftToes  5.91571e-011 -3.44359e-011 -3.93244e-011
435
root  -1.64937 5.97241 15.5841 -44.426 -5.82765 6.77891
RightUpLeg  -95.4235 -17.2122 17.7313
RightLeg  86.1139 15.9144 -15.1528
RightFoot  22.4819 3.87086 -12.2732
RightToes  5.82077e-011 -3.18055e-015 -2.98177e-016
Spine  29.5757 -0.34839 6.69779
Spine1  19.9613 -2.04588 3.00128
HEad  -7.95626 5.49121 11.3932
LeftShoulder1  -3.88251e-019 9.70628e-020 -3.87848e-018
LeftArm  -25.7616 77.1229 -72.8149
LeftForeArm  16.4715 -4.31879 -6.28994
LeftHand  -10.0489 -10.4861 67.0012
RightShoulder  6.08654 9.89201 29.3352
RightArm  58.9301 -66.538 -39.6469
RightForeArm  -13.5555 27.5138 -14.1499
RightHand  -11.083 10.232 -71.2746
LeftUpLeg  -88.0597 8.51254 2.76904
LeftLeg  88.656 -13.9184 12.0677
LeftFoot  34.2194 0.178312 -0.178907
LeftToes  5.91571e-011 -3.44359e-011 -3.93244e-011
436
root  -1.76998 5.97184 15.616 -44.2426 -5.89634 7.92969
RightUpLeg  -96.3526 -17.2824 19.8391
RightLeg  85.2307 15.7076 -15.8137
RightFoot  20.8953 4.07077 -13.4967
RightToes  5.82077e-011 -3.18055e-015 -2.98177e-016
Spine  29.5904 -0.344887 5.56922
Spine1  20.3392 -2.61839 3.56843
HEad  -8.17762 7.13169 12.0631
LeftShoulder1  -3.88251e-019 9.70628e-020 -3.87848e-018
LeftArm  -24.4119 77.7029 -71.2646
LeftForeArm  18.0235 -4.97979 -6.1526
LeftHand  -9.90706 -10.8406 65.0627
RightShoulder  6.00843 9.7942 29.1093
RightArm  62.497 -66.092 -41.9746
RightForeArm  -14.1495 30.4794 -15.7725
RightHand  -11.1095 10.4161 -70.7701
LeftUpLeg  -88.0038 8.73207 2.77159
LeftLeg  88.821 -13.9411 11.9068
LeftFoot  33.9904 0.384036 -0.653724
LeftToes  5.91571e-011 -3.44359e-011 -3.93244e-011
437
root  -1.87077 5.97572 15.6486 -44.2333 -5.9497 9.27764
RightUpLeg  -97.0151 -17.3179 21.7936
RightLeg  84.5907 15.539 -15.8504
RightFoot  19.3043 4.13649 -14.3875
RightToes  5.82077e-011 -3.18055e-015 -2.98177e-016
Spine  29.7187 -0.399202 4.48957
Spine1  20.6353 -3.17731 3.84663
HEad  -8.23924 8.70397 12.6263
LeftShoulder1  -3.88251e-019 9.70628e-020 -3.87848e-018
LeftArm  -21.7219 78.2809 -67.9366
LeftForeArm  20.8319 -5.43258 -5.88138
LeftHand  -9.89418 -11.4786 62.9611
RightShoulder  5.83945 9.62466 28.5245
RightArm  66.8892 -65.7337 -44.5739
RightForeArm  -14.5038 33.2404 -17.4029
RightHand  -10.6681 9.81118 -70.6727
LeftUpLeg  -87.7201 9.01333 2.6413
LeftLeg  88.9936 -13.9776 11.9617
LeftFoot  33.721 0.636477 -1.24309
LeftToes  5.91571e-011 -3.44359e-011 -3.93244e-011
